<svg width="80" height="30" viewBox="0 0 80 30" fill="none" xmlns="http://www.w3.org/2000/svg">
<path d="M79.7446 2.10965H54.8508V27.8473H79.7446V2.10965Z" fill="black"/>
<path fill-rule="evenodd" clip-rule="evenodd" d="M67.2982 20.3581L60.5469 5.37961L67.2977 0.000427246L67.2982 20.3581Z" fill="#F9B816"/>
<path fill-rule="evenodd" clip-rule="evenodd" d="M67.2977 20.3581L74.0486 5.37919L67.2977 0V20.3581Z" fill="#F36C24"/>
<path d="M52.3192 2.10965H27.4254V27.8473H52.3192V2.10965Z" fill="black"/>
<path fill-rule="evenodd" clip-rule="evenodd" d="M33.0946 17.5283V2.12786L40.9003 0.018219L33.0946 17.5283Z" fill="#F9B816"/>
<path fill-rule="evenodd" clip-rule="evenodd" d="M33.0647 17.5551L44.5094 7.25022L40.8542 0.0378418L33.0647 17.5551Z" fill="#F36C24"/>
<path fill-rule="evenodd" clip-rule="evenodd" d="M46.5598 12.4899V27.8903L38.7541 30L46.5598 12.4899Z" fill="#F36C24"/>
<path fill-rule="evenodd" clip-rule="evenodd" d="M46.5896 12.463L35.1449 22.768L38.8002 29.9804L46.5896 12.463Z" fill="#F9B816"/>
<path d="M24.8938 9.59888H0V27.7418H24.8938V9.59888Z" fill="black"/>
<path d="M24.8938 0H12.4469V7.80569H24.8938V0Z" fill="black"/>
<path d="M12.4469 0H0V7.80569H12.4469V0Z" fill="#F9B816"/>
<path fill-rule="evenodd" clip-rule="evenodd" d="M5.59012 2.21514L5.59054 5.59057H5.06312C5.00487 5.59057 4.95764 5.63779 4.95764 5.69605V6.32936C4.95764 6.38761 5.00487 6.43484 5.06312 6.43484H7.48922C7.54747 6.43484 7.5947 6.38761 7.5947 6.32936V5.69566C7.5947 5.6374 7.54747 5.59018 7.48922 5.59018H6.9618V2.21514H7.48939C7.54764 2.21514 7.59487 2.16791 7.59487 2.10965V1.47676C7.59487 1.4185 7.54764 1.37128 7.48939 1.37128H5.06312C5.00487 1.37128 4.95764 1.4185 4.95764 1.47676V2.10965C4.95764 2.16791 5.00487 2.21514 5.06312 2.21514H5.59012Z" fill="black"/>
<path fill-rule="evenodd" clip-rule="evenodd" d="M16.6662 3.59863C16.6662 2.48353 17.1284 1.3713 18.5371 1.37128C19.946 1.37126 20.4082 2.43625 20.4082 3.59863C20.4082 4.24712 20.2903 4.91903 19.927 5.38735L20.5878 5.80854C20.6509 5.84878 20.6532 5.94014 20.5921 5.98349L19.9901 6.4111C19.9655 6.42851 19.9348 6.4345 19.9064 6.42454C19.832 6.39844 19.6698 6.32919 19.4504 6.16563C19.3248 6.07199 19.2422 5.98114 19.1886 5.90656C18.9996 5.96875 18.7835 6.00326 18.5371 6.00417C17.0448 6.00971 16.6662 4.71371 16.6662 3.59863ZM17.8244 3.62946C17.8244 2.90037 18.0005 2.17314 18.5371 2.17312C19.0738 2.17311 19.2499 2.86945 19.2499 3.62946C19.2499 4.38947 19.1057 5.19868 18.5371 5.20231C17.9687 5.20594 17.8244 4.35856 17.8244 3.62946Z" fill="white"/>
<path fill-rule="evenodd" clip-rule="evenodd" d="M12.4465 9.59888L19.1978 24.5774L12.447 29.9565L12.4465 9.59888Z" fill="#F36C24"/>
<path fill-rule="evenodd" clip-rule="evenodd" d="M12.4469 9.59888L5.69604 24.5778L12.4469 29.957V9.59888Z" fill="#F9B816"/>
</svg>
